<svg width="39" height="39" viewBox="0 0 39 39" fill="none" xmlns="http://www.w3.org/2000/svg">
<path d="M19.5 3.25C10.5462 3.25 3.25 10.5462 3.25 19.5C3.25 28.4538 10.5462 35.75 19.5 35.75C28.4538 35.75 35.75 28.4538 35.75 19.5C35.75 10.5462 28.4538 3.25 19.5 3.25ZM24.0337 20.3612L18.2975 26.0975C18.0538 26.3412 17.745 26.455 17.4362 26.455C17.1275 26.455 16.8187 26.3412 16.575 26.0975C16.1037 25.6262 16.1037 24.8462 16.575 24.375L21.45 19.5L16.575 14.625C16.1037 14.1538 16.1037 13.3738 16.575 12.9025C17.0462 12.4313 17.8263 12.4313 18.2975 12.9025L24.0337 18.6388C24.5212 19.11 24.5212 19.89 24.0337 20.3612Z" fill="#C8C8C8"/>
</svg>
